<mxfile host="app.diagrams.net" modified="2021-09-22T07:32:06.642Z" agent="5.0 (Windows NT 10.0; Win64; x64) AppleWebKit/537.36 (KHTML, like Gecko) Chrome/92.0.4515.131 Safari/537.36" etag="V1ccxAwRL7i250kw0j5e" version="15.2.9" type="github">
  <diagram id="W_DReMgP71CA9isXhY2m" name="Page-1">
    <mxGraphModel dx="1422" dy="762" grid="1" gridSize="10" guides="1" tooltips="1" connect="1" arrows="1" fold="1" page="1" pageScale="1" pageWidth="827" pageHeight="1169" math="0" shadow="0">
      <root>
        <mxCell id="0" />
        <mxCell id="1" parent="0" />
        <mxCell id="mksB4pefem-4oOottDkp-2" value="主动方" style="rounded=0;whiteSpace=wrap;html=1;" vertex="1" parent="1">
          <mxGeometry x="110" y="110" width="90" height="220" as="geometry" />
        </mxCell>
        <mxCell id="mksB4pefem-4oOottDkp-3" value="主动方" style="rounded=0;whiteSpace=wrap;html=1;" vertex="1" parent="1">
          <mxGeometry x="430" y="110" width="90" height="220" as="geometry" />
        </mxCell>
        <mxCell id="mksB4pefem-4oOottDkp-4" value="" style="rounded=0;whiteSpace=wrap;html=1;" vertex="1" parent="1">
          <mxGeometry x="270" y="110" width="90" height="220" as="geometry" />
        </mxCell>
        <mxCell id="mksB4pefem-4oOottDkp-5" value="可靠消息服务" style="text;html=1;resizable=0;autosize=1;align=center;verticalAlign=middle;points=[];fillColor=none;strokeColor=none;rounded=0;" vertex="1" parent="1">
          <mxGeometry x="270" y="120" width="90" height="20" as="geometry" />
        </mxCell>
        <mxCell id="mksB4pefem-4oOottDkp-6" value="database" style="shape=datastore;whiteSpace=wrap;html=1;" vertex="1" parent="1">
          <mxGeometry x="285" y="250" width="60" height="60" as="geometry" />
        </mxCell>
        <mxCell id="mksB4pefem-4oOottDkp-8" value="MQ" style="shape=parallelogram;perimeter=parallelogramPerimeter;whiteSpace=wrap;html=1;fixedSize=1;" vertex="1" parent="1">
          <mxGeometry x="277.5" y="170" width="75" height="50" as="geometry" />
        </mxCell>
        <mxCell id="mksB4pefem-4oOottDkp-11" value="" style="shape=flexArrow;endArrow=classic;html=1;" edge="1" parent="1">
          <mxGeometry width="50" height="50" relative="1" as="geometry">
            <mxPoint x="210" y="198" as="sourcePoint" />
            <mxPoint x="260" y="198" as="targetPoint" />
          </mxGeometry>
        </mxCell>
        <mxCell id="mksB4pefem-4oOottDkp-12" value="" style="shape=flexArrow;endArrow=classic;html=1;entryX=1;entryY=0.612;entryDx=0;entryDy=0;entryPerimeter=0;" edge="1" parent="1">
          <mxGeometry width="50" height="50" relative="1" as="geometry">
            <mxPoint x="260" y="245" as="sourcePoint" />
            <mxPoint x="209" y="244.64" as="targetPoint" />
          </mxGeometry>
        </mxCell>
        <mxCell id="mksB4pefem-4oOottDkp-13" value="" style="shape=flexArrow;endArrow=classic;html=1;" edge="1" parent="1">
          <mxGeometry width="50" height="50" relative="1" as="geometry">
            <mxPoint x="371" y="196.18" as="sourcePoint" />
            <mxPoint x="421" y="196.18" as="targetPoint" />
          </mxGeometry>
        </mxCell>
        <mxCell id="mksB4pefem-4oOottDkp-14" value="" style="shape=flexArrow;endArrow=classic;html=1;entryX=1;entryY=0.612;entryDx=0;entryDy=0;entryPerimeter=0;" edge="1" parent="1">
          <mxGeometry width="50" height="50" relative="1" as="geometry">
            <mxPoint x="421" y="243.18" as="sourcePoint" />
            <mxPoint x="370" y="242.82" as="targetPoint" />
          </mxGeometry>
        </mxCell>
      </root>
    </mxGraphModel>
  </diagram>
</mxfile>
